<?xml version="1.0" encoding="UTF-8" standalone="no"?>
<svg
   viewBox="0 0 24 24"
   fill="none"
   stroke="#0078d4"
   stroke-width="2"
   stroke-linecap="round"
   stroke-linejoin="round"
   version="1.1"
   id="svg2"
   sodipodi:docname="icon.svg"
   inkscape:version="1.4.2 (f4327f4, 2025-05-13)"
   inkscape:export-filename="icon.png"
   inkscape:export-xdpi="2048"
   inkscape:export-ydpi="2048"
   xmlns:inkscape="http://www.inkscape.org/namespaces/inkscape"
   xmlns:sodipodi="http://sodipodi.sourceforge.net/DTD/sodipodi-0.dtd"
   xmlns="http://www.w3.org/2000/svg"
   xmlns:svg="http://www.w3.org/2000/svg">
  <defs
     id="defs2">
    <inkscape:path-effect
       effect="spiro"
       id="path-effect3"
       is_visible="true"
       lpeversion="1" />
  </defs>
  <sodipodi:namedview
     id="namedview2"
     pagecolor="#ffffff"
     bordercolor="#000000"
     borderopacity="0.25"
     inkscape:showpageshadow="2"
     inkscape:pageopacity="0.0"
     inkscape:pagecheckerboard="0"
     inkscape:deskcolor="#d1d1d1"
     showgrid="false"
     inkscape:zoom="23.776466"
     inkscape:cx="12.133847"
     inkscape:cy="13.690008"
     inkscape:window-width="1920"
     inkscape:window-height="1009"
     inkscape:window-x="1912"
     inkscape:window-y="-8"
     inkscape:window-maximized="1"
     inkscape:current-layer="svg2" />
  <circle
     cx="12"
     cy="12"
     r="10"
     id="circle1" />
  <path
     style="fill:none;stroke-width:1.49277"
     d="m 14.00991,4.3879229 -3.774706,3.7747056 h 3.84313 l -4.042698,4.0426975"
     id="path3" />
  <path
     style="font-size:6.19922px;line-height:0.9;font-family:Impact;-inkscape-font-specification:Impact;letter-spacing:0px;word-spacing:0px;fill:#0078d4;stroke-width:0"
     d="m 7.272162,13.869151 h 0.902035 q 0.902035,0 1.2198661,0.06962 0.320858,0.06962 0.5206376,0.357182 0.2028063,0.284534 0.2028063,0.911116 0,0.572096 -0.142267,0.768848 -0.1422673,0.196753 -0.5599882,0.236103 0.3783704,0.09384 0.5085298,0.251238 0.1301594,0.157402 0.1604294,0.290589 0.0333,0.130159 0.0333,0.723444 v 1.292513 H 8.9339647 v -1.628506 q 0,-0.393505 -0.063566,-0.487341 -0.060539,-0.09384 -0.3238851,-0.09384 v 2.209683 H 7.272162 Z m 1.2743514,0.838469 v 1.089706 q 0.2149144,0 0.2996694,-0.05751 0.087782,-0.06054 0.087782,-0.384424 v -0.2694 q 0,-0.233076 -0.084755,-0.305723 -0.081728,-0.07265 -0.3026963,-0.07265 z m 4.9884346,0.965601 h -1.274351 v -0.444964 q 0,-0.420748 -0.03632,-0.526691 -0.03632,-0.105944 -0.172536,-0.105944 -0.118052,0 -0.16043,0.09081 -0.04238,0.09081 -0.04238,0.466152 v 2.35195 q 0,0.329939 0.04238,0.435883 0.04238,0.102917 0.16951,0.102917 0.139241,0 0.187672,-0.118052 0.05146,-0.118051 0.05146,-0.460098 v -0.581177 h -0.257291 v -0.744633 h 1.492292 v 2.630431 h -0.802145 l -0.118051,-0.351128 q -0.13016,0.227023 -0.329939,0.342047 -0.196753,0.111998 -0.466153,0.111998 -0.320858,0 -0.602365,-0.154375 -0.278481,-0.157402 -0.423775,-0.387452 -0.145294,-0.230049 -0.181618,-0.481287 -0.03632,-0.254265 -0.03632,-0.759767 v -1.45597 q 0,-0.702255 0.07567,-1.020086 0.07567,-0.317831 0.432855,-0.581177 0.360209,-0.266373 0.929278,-0.266373 0.559988,0 0.929278,0.230049 0.369289,0.23005 0.481287,0.547881 0.111997,0.314804 0.111997,0.917169 z m 3.193446,-0.320858 h -1.183542 v -0.363236 q 0,-0.254265 -0.04541,-0.323885 -0.0454,-0.06962 -0.151348,-0.06962 -0.115024,0 -0.175564,0.09384 -0.05751,0.09384 -0.05751,0.284534 0,0.245184 0.06659,0.36929 0.06357,0.124105 0.360209,0.299669 0.850576,0.505503 1.071545,0.829388 0.220968,0.323885 0.220968,1.044302 0,0.523665 -0.124106,0.771876 -0.121078,0.248211 -0.472206,0.417721 -0.351127,0.166483 -0.81728,0.166483 -0.511557,0 -0.874792,-0.193726 Q 14.185745,18.485269 14.073748,18.1856 13.96175,17.885931 13.96175,17.335024 v -0.320859 h 1.183543 v 0.596312 q 0,0.275454 0.04843,0.354155 0.05146,0.0787 0.178591,0.0787 0.127132,0 0.187672,-0.09989 0.06357,-0.09989 0.06357,-0.296642 0,-0.432856 -0.118052,-0.566042 -0.121078,-0.133187 -0.596312,-0.444964 -0.475233,-0.314804 -0.629608,-0.457071 -0.154375,-0.142268 -0.257292,-0.393505 -0.09989,-0.251238 -0.09989,-0.641717 0,-0.563015 0.142267,-0.823334 0.145294,-0.260318 0.466152,-0.405613 0.320858,-0.148321 0.774903,-0.148321 0.496422,0 0.844522,0.160429 0.351128,0.160429 0.463126,0.405613 0.115024,0.242157 0.115024,0.826361 z"
     id="text3"
     aria-label="RGS" />
</svg>
